<svg xmlns="http://www.w3.org/2000/svg" xmlns:xlink="http://www.w3.org/1999/xlink" width="49.713" height="29.894" viewBox="0 0 49.713 29.894"><defs><clipPath id="a"><path d="M0,0H4.057V4.588H0Z" transform="translate(0 0.015)" fill="none"/></clipPath><clipPath id="b"><path d="M0,29.893H49.713V0H0Z" fill="none"/></clipPath></defs><g transform="translate(0 25.291)"><path d="M0,0H4.057V4.588H0Z" transform="translate(0 0.015)" fill="none"/><g clip-path="url(#a)"><path d="M3.093,1.576A.942.942,0,0,0,2.141.81c-.86,0-1.183.736-1.183,1.5,0,.73.324,1.466,1.183,1.466A.983.983,0,0,0,3.13,2.8h.927A1.843,1.843,0,0,1,2.141,4.588,2.108,2.108,0,0,1,0,2.312,2.119,2.119,0,0,1,2.141,0,1.77,1.77,0,0,1,4.02,1.576Z" transform="translate(0 0.015)" fill="#ed3425"/></g></g><path d="M0,29.893H49.713V0H0Z" fill="none"/><g clip-path="url(#b)"><path d="M0,4.379H.958V0H0Z" transform="translate(4.709 25.41)" fill="#ed3425"/><path d="M0,0H.952L2.77,2.937h.012V0h.9V4.379H2.721L.909,1.447H.9V4.379H0Z" transform="translate(6.508 25.41)" fill="#ed3425"/><path d="M0,0H3.258V.809H.958v.939H3.068V2.5H.958V3.569H3.306v.809H0Z" transform="translate(11.028 25.41)" fill="#ed3425"/><path d="M0,0H1.348L2.367,3.011h.012L3.343,0H4.691V4.379h-.9v-3.1H3.782l-1.068,3.1H1.976L.909,1.306H.9V4.379H0Z" transform="translate(14.981 25.41)" fill="#ed3425"/><path d="M.97,4.38H0L1.653,0h.982L4.264,4.378H3.27L2.94,3.4H1.311L.97,4.379Zm1.159-3.3L1.561,2.687H2.69L2.141,1.079H2.129Z" transform="translate(20.049 25.41)" fill="#ed3425"/><path d="M3.392,1.417a1.413,1.413,0,0,0-.18-.451A1.231,1.231,0,0,0,2.907.632a1.352,1.352,0,0,0-.4-.206A1.462,1.462,0,0,0,2.056.355a1.563,1.563,0,0,0-.744.166A1.477,1.477,0,0,0,.8.96a1.89,1.89,0,0,0-.293.617,2.664,2.664,0,0,0,0,1.407A1.882,1.882,0,0,0,.8,3.6a1.473,1.473,0,0,0,.509.438,1.561,1.561,0,0,0,.744.166A1.32,1.32,0,0,0,2.6,4.1a1.3,1.3,0,0,0,.421-.3,1.55,1.55,0,0,0,.287-.445,1.858,1.858,0,0,0,.14-.549h.415a2.373,2.373,0,0,1-.189.73,1.787,1.787,0,0,1-.378.552,1.6,1.6,0,0,1-.546.35,1.906,1.906,0,0,1-.7.123,2.043,2.043,0,0,1-.9-.187,1.874,1.874,0,0,1-.644-.5,2.129,2.129,0,0,1-.384-.724A2.887,2.887,0,0,1,0,2.282a2.889,2.889,0,0,1,.128-.865A2.166,2.166,0,0,1,.512.69a1.858,1.858,0,0,1,.644-.5A2.048,2.048,0,0,1,2.056,0a2.027,2.027,0,0,1,.607.092A1.75,1.75,0,0,1,3.2.365a1.584,1.584,0,0,1,.4.445,1.5,1.5,0,0,1,.2.607Z" transform="translate(26.198 25.318)" fill="#ed3425"/><path d="M0,0H.415V4.023h2.44v.356H0Z" transform="translate(30.699 25.41)" fill="#ed3425"/><path d="M0,0H.415V2.711A2.138,2.138,0,0,0,.5,3.358a1.083,1.083,0,0,0,.25.436.964.964,0,0,0,.4.245,1.741,1.741,0,0,0,.537.077,1.765,1.765,0,0,0,.543-.077.967.967,0,0,0,.4-.245,1.085,1.085,0,0,0,.25-.436,2.138,2.138,0,0,0,.085-.647V0h.415V2.8a2.14,2.14,0,0,1-.094.641,1.372,1.372,0,0,1-.824.89,2.043,2.043,0,0,1-.778.132,2.025,2.025,0,0,1-.772-.132,1.424,1.424,0,0,1-.525-.359,1.407,1.407,0,0,1-.3-.531A2.145,2.145,0,0,1,0,2.8Z" transform="translate(33.932 25.41)" fill="#ed3425"/><path d="M1.842,4.379H0V0H1.842a2.608,2.608,0,0,1,.528.052A1.286,1.286,0,0,1,2.815.23a.945.945,0,0,1,.309.331,1.047,1.047,0,0,1,.115.512,1.049,1.049,0,0,1-.21.629,1,1,0,0,1-.239.224.906.906,0,0,1-.308.129v.013a1.031,1.031,0,0,1,.671.346,1.074,1.074,0,0,1,.249.721,1.686,1.686,0,0,1-.018.237,1.146,1.146,0,0,1-.231.543.947.947,0,0,1-.278.236,1.69,1.69,0,0,1-.427.166A2.494,2.494,0,0,1,1.842,4.379ZM.415,2.275V4.023H1.842a2.366,2.366,0,0,0,.439-.04,1.015,1.015,0,0,0,.366-.144A.744.744,0,0,0,2.9,3.56a.943.943,0,0,0,.092-.438.734.734,0,0,0-.3-.635,1.462,1.462,0,0,0-.851-.211Zm0-1.92V1.92H1.842a1.45,1.45,0,0,0,.434-.058.9.9,0,0,0,.3-.159.665.665,0,0,0,.184-.237.689.689,0,0,0,.061-.287c0-.546-.331-.823-.983-.823Z" transform="translate(38.152 25.41)" fill="#ed3425"/><path d="M1.945,2.333,1.277.438A.657.657,0,0,0,.038.875l.7,2,.845.479" transform="translate(44.219 0)" fill="#ed3425"/><path d="M1.2,2.872l.7-2A.657.657,0,0,0,.668.438L0,2.333.359,3.351" transform="translate(46.163 0)" fill="#f26f24"/><path d="M2.629.332a.657.657,0,0,0-.9-.246L.369.86,0,1.908l.713.268,1.669-.948a.657.657,0,0,0,.247-.9" transform="translate(46.997 2.012)" fill="#ed3425"/><path d="M0,1.069,1.431,1.6a.65.65,0,0,0,.23.042A.657.657,0,0,0,1.892.374L.89,0,0,.5" transform="translate(46.821 4.188)" fill="#f26f24"/><path d="M0,.246V1.284a.658.658,0,0,0,1.315,0V.246L.658,0" transform="translate(45.506 5.011)" fill="#ed3425"/><path d="M1.429,0l-1,.375a.657.657,0,0,0,.23,1.272A.642.642,0,0,0,.887,1.6l1.432-.536V.5" transform="translate(43.187 4.188)" fill="#ed3425"/><path d="M2.346.86.982.086A.657.657,0,1,0,.333,1.228L2,2.176l.713-.268" transform="translate(42.615 2.012)" fill="#f26f24"/><path d="M21.227,17.1a8.242,8.242,0,0,0,5.919-2.524,8.566,8.566,0,0,0,2.126-3.763l2.585,4.859a2.306,2.306,0,0,0,4.079,0L42.255,3.8a2.317,2.317,0,0,0-4.093-2.173L34.087,9.564l-.19.652-.19-.652L29.631,1.625A2.316,2.316,0,0,0,25.541,3.8L27.063,6.66h-4.7a1.989,1.989,0,0,0,0,3.975h2.322a3.951,3.951,0,0,1-3.468,1.9A3.674,3.674,0,0,1,18.568,11.4a4.049,4.049,0,0,1-1.131-2.83,3.929,3.929,0,0,1,3-3.882,2.281,2.281,0,0,0,.456-4.3,3.154,3.154,0,0,0-2.028,0,8.5,8.5,0,0,0-5.988,8.184A8.711,8.711,0,0,0,13,10.022a5.132,5.132,0,0,1-4.407,2.714,4.094,4.094,0,0,1-.728-8.111s.472-.091,1.229-.154A2.216,2.216,0,0,0,10.87,2.278,2.278,2.278,0,0,0,8.591,0a8.647,8.647,0,0,0,0,17.294,8.535,8.535,0,0,0,6.474-2.97A8.292,8.292,0,0,0,21.227,17.1" transform="translate(0.099 4.613)" fill="#ed3425"/></g></svg>